<?xml version="1.0" encoding="UTF-8"?>
<svg id="Layer_1" data-name="Layer 1" xmlns="http://www.w3.org/2000/svg" viewBox="0 0 206.68 148.6">
  <path d="M152.79,129.17c-19.57,14.31-45,18.58-68.77,19.3-6.39.2-13.26.14-19.66,0-19.59-.43-34.26-1.94-53.76-2.27-1.19-.02-9.33.19-10.6-.01l16.1-7.97c19.02-10.36,40.06-23.11,54.74-39.18.34-.38,2.3-2.52,2.35-2.69.12-.39.08-.61-.2-.91-.35-.39-4.72-2.4-5.67-2.95-28.18-16.38-43.22-51.39-31.13-82.64.17,1.22-.31,2.5-.37,3.7-.84,17.13,5.98,35.42,18.35,47.3l-3.86-13.21c-2.73-12.92-.13-21.55,7.46-31.32l-1.26,9.52c-.12,1.36.09,4.63.23,5.98,2.22,20.51,19.88,28.41,38.59,32.69,17.75,4.07,39.61,2.29,52.69-11.56-2.66,13.31-8.6,25.92-16.92,36.6-14.48,18.58-36.15,30.56-57.64,39.4l-12.45,4.91c35.72-1.68,71.6-15.03,95.53-42.13,8.35-9.45,11.85-18.77,15.15-30.83,1.73-6.32,3.26-12.84,2.95-19.44l2.5,6.23c10.41,31.45,2.56,61.81-24.35,81.48Z"/>
  <path d="M206.66,29.51c-5.75-2.71-11.98-4.23-18.21-5.4-3.28-.61-8.53-.61-11.04-2.62-2.21-1.77-4.3-4.52-6.47-6.47C160.41,5.55,148.03.64,134.87.06c-1.57-.07-3.14-.08-4.72-.02-.73.02-1.47.06-2.2.12-4.4.31-8.87,1.08-13.35,2.31-16.6,4.55-33.25,18.62-38.08,35.47-.41,1.45-1.33,4.9-1.12,6.27l10.56,6.07c.69-.37,3.04-4.63,3.99-6.14.1-.14.18-.26.24-.35,4.61-6.37,11.48-10.83,18.96-13.15.68-.21,3.14-1.03,4.49-1.09.15-.01.28-.01.4,0,.27.01.46.07.55.19.18.23.66,2.82.96,3.59,1.74,4.45,5.72,6.7,9.85,6.96.42.03.83.04,1.24.02,5.3-.21,10.46-3.61,11.19-9.75.92-7.83-4.99-12.77-11.15-13.05-.39-.02-.79-.02-1.18.01-3.62.22-7.16,2.08-9.31,5.93-.91,1.63-1.12,3.18-1.84,4.84-.03,0-.06-.02-.09-.03,0,.01-.01.02-.01.03-2.24-.91-4.5-1.33-6.78-1.42-.83-.03-1.67-.02-2.5.03-3.81.23-7.61,1.19-11.36,2.12.01-.01.02-.02.02-.03-.04.01-.08.02-.12.03,5.55-7.29,13.26-13.35,22.11-16.1,3.65-1.13,7.46-1.77,11.3-1.9,1.52-.06,3.03-.04,4.54.07,9.72.66,19.13,4.62,25.56,12.19,5.07,5.97,3.01,9.87-2.54,14.22-2.22,1.74-6.16,3.69-7.98,5.44-.33.31-.49.34-.39.89,18.3-7.97,38.32-9.68,57.72-13.44.3-.06,3.11-.48,2.83-.88ZM128.55,23.08c5.28-.3,5.43,8.03-.06,7.85-5.05-.16-4.79-7.58.06-7.85Z"/>
</svg>