<?xml version="1.0" encoding="UTF-8"?>
<svg id="Layer_1" data-name="Layer 1" xmlns="http://www.w3.org/2000/svg" viewBox="0 0 949 370">
  <defs>
    <style>
      .cls-1 {
        fill: #231f20;
      }

      .cls-2 {
        fill: #4e81bd;
      }

      .cls-3 {
        fill: #061b37;
      }

      .cls-4 {
        fill: #112337;
      }

      .cls-5 {
        fill: #fff;
      }

      .cls-6 {
        fill: #4e83be;
      }
    </style>
  </defs>
  <g>
    <path class="cls-5" d="M243.51,274.23c5.07.45,10.17.46,15.25.06,2.45-.2,4-1.95,4.45-4.48h-25.99c1.8,2.18,3.58,4.18,6.29,4.42Z"/>
    <path class="cls-5" d="M251.85,284.3c2.37-.01,4.74-.03,7.11-.04-2.37.01-4.74.02-7.11.04Z"/>
    <path class="cls-5" d="M246.07,260.38s.06.02.09.03c-.03-.01-.06-.02-.09-.03Z"/>
    <path class="cls-5" d="M228.96,274.47c1.86,3.36,4.32,6.13,7.77,7.93,1.52.79,3.08,1.37,4.71,1.69-1.63-.32-3.19-.9-4.71-1.69-3.45-1.8-5.91-4.57-7.77-7.93-.23-.41-.41-.9-.76-1.03.35.14.53.62.76,1.03Z"/>
    <path class="cls-5" d="M256.85,227.36c.03,6.34,5.62,11.76,12.04,11.68,6.58-.08,11.76-5.45,11.74-12.17-.02-5.93-5.77-11.43-11.9-11.37-6.5.06-11.92,5.46-11.89,11.86Z"/>
    <path class="cls-5" d="M264.88,251.44c.03,1.57.94,2.72,2.6,2.71,1.67-.01,2.42-1.17,2.58-2.71-.14-1.67-1-2.75-2.63-2.74-1.63.01-2.58,1.13-2.55,2.74Z"/>
    <path class="cls-5" d="M255.83,254.13c1.67.09,2.57-.87,2.72-2.43-.02-1.76-.87-2.85-2.48-2.95-1.62-.1-2.72.86-2.73,2.53,0,1.54.8,2.76,2.49,2.85Z"/>
    <path class="cls-5" d="M279.11,248.73c-1.68-.1-2.67.95-2.73,2.55-.07,1.6.86,2.73,2.52,2.8,1.63.07,2.57-.9,2.75-2.45-.03-1.78-.9-2.8-2.53-2.9Z"/>
    <g>
      <path class="cls-5" d="M351.89,192.01c-.04-7.25-4.86-12.52-11.48-12.52-2.11,0-4.21.55-6.25,1.64-2.25,1.2-4.51,2.43-6.75,3.66-2.69,1.46-5.47,2.98-8.19,4.42-1.61.85-2.99,1.89-4.12,3.1-.58-.11-1.17-.17-1.78-.17-3.23,0-5.79,1.62-7.17,2.5-.06.04-.12.08-.18.12-2.88,1.45-5.74,3.98-7.53,7.25-1.5.02-2.79.42-3.84.89-.52-.77-1.1-1.49-1.72-2.15.57-1.3.85-2.76.83-4.4-.11-7.91-.11-13.99-.02-19.7.05-2.7-.77-4.93-2.44-6.61-1.16-1.18-2.61-1.95-4.21-2.27.24-2-.25-3.95-1.29-5.55,2.05-.11,3.96-.94,5.39-2.39,2.5-2.53,2.46-5.66,2.45-6.68-.05-3.71-.04-7.51-.03-11.19v-3.53c.02-.23.04-.47.04-.71,0-1.39,0-2.78-.02-4.17,0-2.52-.02-5.1,0-7.66.09,0,.19.02.28.02,3.16,0,7.07-1.71,8.6-6.49.48-1.49,1.29-2.91,2.41-4.21.87-1.01,2.02-2.34,2.82-3.96,1.79-.28,3.41-1.1,4.67-2.38,2.5-2.57,2.41-5.68,2.39-6.7-.04-1.6-.03-3.21-.02-4.91v-.45c1.44-.35,2.76-1.07,3.82-2.14,1.55-1.56,2.4-3.69,2.39-6.02,0-.41,0-.78,0-1.13.05-3.31.15-11.08-10.75-12.79-2.03-.31-4.09-.61-6.16-.87-.02-.21-.04-.4-.06-.58-.02-.26-.07-.66-.07-.8-.16-6.73-3.04-10.2-9.65-11.6-3.93-.84-8.13-1.41-12.74-1.75.02-3.1,0-6.19,0-9.21v-5.27c0-.25-.02-.49-.04-.73v-4.77c0-4.52,0-9.05,0-13.57-.02-6.66-4.37-11.31-10.59-11.31h-.28c-6.09.14-10.36,4.77-10.4,11.25l-.02,5.5c-.05,9.24-.1,18.75-.1,28.19-3.13.22-6.48.64-10.26,1.26l-.15.02c-3.78.63-7.04,1.17-9.57,4.15-2.34,2.77-2.51,5.8-2.51,9.28-2.04.23-4.09.48-6.15.75-8.42,1.12-11.87,5.22-11.54,13.71.2,5.04,3.4,7.7,6.74,8.34.02,1.72,0,3.5-.06,5.31-.09,2.74.72,5.01,2.41,6.76,1.2,1.25,2.76,2.07,4.47,2.39.58,1.2,1.28,2.09,1.66,2.58,1.98,2.48,3.07,4.29,3.66,6.04,1.29,3.8,4.48,6.15,8.35,6.15.28,0,.54-.02.79-.03.04,7.17.02,12.98-.05,18.52-.03,2.39.74,4.97,2.68,6.84-.15-.02-.3-.05-.45-.06-.82-.11-.9-.17-1.39-.71-12.88-14.28-27.84-23.09-44.61-26.31,2.57-.71,4.64-2.72,5.36-5.38.91-3.36-.55-6.9-3.56-8.64-4.24-2.46-8.86-4.71-14.13-6.88-16.27-6.73-32.51-10.14-48.27-10.14-7.05,0-14.16.68-21.14,2.02-24.22,4.67-35.06,13.23-37.4,15.32-9.57,7.34-16.43,16.23-20.37,26.41l-.05.11c-.17.36-.34.73-.51,1.16-.26.66-.51,1.33-.74,1.99-.84-1.19-2.03-2.15-3.48-2.72-.91-.35-1.85-.52-2.78-.52-2.96,0-5.77,1.72-7.02,4.6-17.42,39.88-18.25,75.48-15.87,98.33,2.6,24.96,9.38,40.46,9.67,41.11.11.25.23.49.37.73,1.9,3.28,4.45,5.06,7.57,5.33-7.05,3.93-14.74,7.96-23.35,12.23-.2.11-.41.2-.61.3-1.25.57-3.13,1.44-5.05,3.17-2.35,2.12-3.16,5.48-2.02,8.44,1.13,2.96,3.98,4.91,7.15,4.91h3.86c5.01,0,10.03,0,15.04,0,5.01,0,10.02-.02,15.02-.02,8.49,0,15.59.02,22.04.06-1.13,2.24-1.12,4.94.15,7.21,1.65,2.93,4.13,4.22,5.33,4.84.1.05.2.1.3.16,22.84,12.63,46.82,19.04,71.3,19.04,6.17,0,12.47-.41,18.73-1.21,18.91-2.43,36.68-8.67,52.79-18.54,11.77-7.2,22.35-16.48,32.35-28.38,2.47-2.94,3.62-6.12,3.51-9.72-.02-.35,0-.77.05-1.23l21.78-17.11c1.69-1.33,2.75-3.32,2.9-5.47.08-1.12.02-2.19-.18-3.23,1-1.03,1.85-2.18,2.54-3.45.07.03.15.07.22.1.97.41,1.99.62,3.02.62.05,0,.1,0,.15,0,2.83,4.37,7.21,6.22,10.29,7.53l.19.08c1.2.51,2.64,1.03,4.39,1.03.54,0,1.06-.05,1.57-.15,1.18,1.23,2.43,2.07,3.43,2.61,1.48.8,2.95,1.6,4.42,2.41,3.35,1.82,6.81,3.71,10.28,5.53,2.35,1.23,4.68,1.85,6.94,1.85,5.6,0,11.63-4.15,11.63-13.25v-44.99c0-2.9,0-5.81,0-8.72,0-7.11.02-14.45,0-21.68ZM273.43,198.22c-3.62,0-7.24-.04-10.85.02-1.15.02-1.53-.29-1.51-1.48.06-5.09.05-10.19,0-15.28-.01-1.09.27-1.52,1.42-1.68,7.38-1.01,14.74-2.18,21.89-4.35.93-.28,1.54-.53,1.51,1.04-.11,6.64-.08,13.29.01,19.93.02,1.46-.36,1.92-1.84,1.88-3.54-.1-7.09-.03-10.63-.03v-.06ZM258.23,197.95s.01-.01.02-.02c-.04,0-.08,0-.14,0-.89,0-1.77-.02-2.66-.02-2.95.89-5.97.21-8.95.39-.81.05-.87-.62-.87-1.24,0-4.58,0-9.15-.05-13.72-.02-1.06.45-1.46,1.4-1.56,2.85-.31,5.7-.61,8.55-.92.99-.15,1.95-.74,2.98-.15.27,3.39.11,6.78.02,10.18-.02,2.22-.02,4.44-.04,6.66.01.05,0,.09,0,.13.04-.04.08-.08.11-.11.07.32-.08.43-.38.38ZM255.44,122.36c0-1.28.43-1.57,1.62-1.67,9-.72,17.99-.97,26.99-.01,1.41.15,1.82.51,1.79,1.94-.09,5.02-.04,10.05-.04,15.07h-.03c0,5.17-.04,10.34.02,15.52.02,1.38-.28,1.62-1.59,1.08-6.9-2.84-14.07-4.9-21.26-6.84-1.52-.41-1.93-1.05-1.9-2.56.09-4.21,0-8.42-.03-12.63,0-.37.02-.74-.02-1.11-.11-1.04.2-2.63-1.28-2.59-1.19.03-1.13,1.5-1.13,2.55,0,4.51-.01,9.01-.01,13.52,0,.89.19,1.79-1.29,1.58-1.09-.15-1.89-.1-1.87-1.67.1-7.39.08-14.78.03-22.16ZM250.95,68c4.75-.78,9.51-1.35,14.31-1.35,2.05,0,2.37-.73,2.36-2.57-.03-12.85.06-25.7.12-38.55.01-2.37,1.02-3.58,2.91-3.63,2.01-.05,3.03,1.15,3.04,3.67.01,6.35,0,12.7,0,19.06h.04c0,6.43.04,12.85-.03,19.28-.02,1.74.26,2.52,2.36,2.59,5.53.19,11.05.7,16.49,1.86,3.1.66,3.5,1.16,3.58,4.28.04,1.62.61,3.75-.19,4.72-.9,1.1-2.95-.14-4.5-.32-14.45-1.63-28.88-1.51-43.31.23-3,.36-2.99.41-3-2.53-.02-5.81,0-5.76,5.82-6.72ZM227.44,88.06c-.18-4.51.4-5.21,4.88-5.81,12.67-1.68,25.39-2.63,38.18-2.63,12.86,0,25.67.65,38.39,2.65,4.87.76,4.25,2.2,4.27,6.38,0,.79-.42.77-1.01.62-18.11-4.53-36.56-4.45-55.03-3.82-9.53.33-18.98,1.42-28.28,3.63-1.1.26-1.36.14-1.4-1.02ZM234.12,102.27c.1-2.88.1-5.76,0-8.64-.05-1.42.46-1.86,1.82-2.12,11.3-2.15,22.71-2.64,34.17-2.62,11.24-.05,22.43.55,33.55,2.22q3.31.5,3.31,3.92c0,2.44-.05,4.88.01,7.31.03,1.12-.12,1.53-1.44,1.26-19.73-4.1-39.59-4.11-59.51-1.76-3.44.41-6.85,1.08-10.25,1.73-1.22.23-1.71.11-1.66-1.29ZM245.92,117.32c-1.05-3.1-2.89-5.79-4.91-8.34-1.43-1.8-1.27-2.16,1.03-2.61,9.6-1.88,19.31-2.41,31.7-2.38,6.08.05,14.79.3,23.38,1.85,4.55.82,4.8.92,1.85,4.33-1.75,2.03-3.1,4.33-3.91,6.88-.35,1.11-.82,1.28-1.9,1.11-15.13-2.45-30.26-2.49-45.39.03-.84.14-1.45.27-1.84-.86ZM249.01,158.81c10.05,1.26,19.97,3.22,29.4,7.1.18.07.36.15.53.24.56.27.45,1.11-.16,1.23-22.64,4.31-45.72,6.58-67.43,14.8-.55-1.03-.37-.7-.91-1.73,1.3-.89,2.59-1.78,3.89-2.68.91-.63,1.79-1.3,2.66-1.99,7.25-5.76,7.58-11.1,1.09-17.83-7.69-7.98-17.12-12.65-28.06-13.72-20.1-1.96-36.11,5.86-48.67,21.33-.15.2-.29.4-.44.6.29.19,10.59-2.88,15.64-2.78,3.27.07,6.42.63,9.62,1.72.38.13.77-.1.85-.49.76-3.78,2.37-7.05,5.5-9.48,5.56-4.32,13.14-4.27,18.14.17,5.45,4.85,6.6,11.89,2.94,18.03-3.5,5.88-10.77,8.33-17.39,5.83-5.07-1.91-7.95-5.66-9-10.9-.19-.93-.12-1.87-1.65-1.53-13.96,3.11-25.07,10.14-31.95,23.04-1.68,3.14-1.63,3.18-4.88,1.4-1.23-.67-2.38-1.53-3.67-2.04-2.54-1.02-2.74-2.74-2.42-5.23,3.03-23.8,21.79-45.3,47.04-51.12,28.56-6.59,53.34.82,73.21,22.84,1.76,1.95,3.55,2.86,6.13,3.19ZM50.68,277.85s-26.21-59.02,6.22-133.26c-1.69,4.92-3.01,9.42-3.73,14.11-2.21,14.31-.09,28.08,4.8,41.55,7.07,19.5,19.32,35.03,36.11,47.05,1.45,1.04,1.67,1.58.24,2.87-12.35,11.11-25.67,20.81-40.31,28.72-1.91,1.03-2.47.45-3.33-1.04ZM290,247.84c-.1,1.02-.21,2.04-.28,3.07-.32,4.43-2.56,7.37-6.76,8.83-.45.16-1.04.16-1.28.73,2.55.96,3.71,2.5,3.55,4.67l-24.32,19.11h0c-.16,1.83-.49,3.67-.44,5.5.06,1.83-.54,3.16-1.72,4.55-8.81,10.48-18.79,19.61-30.48,26.77-15.33,9.38-31.95,15.18-49.76,17.47-30.32,3.9-58.7-2.19-85.34-16.93-.94-.52-2.02-.92-2.65-2.04.65-.74,1.51-.43,2.24-.44,6.94-.11,13.88-.12,20.81-.46,20.49-1.02,40.66-4.02,60.44-9.49,15.35-4.25,30.06-10.1,44.05-17.75,1.37-.75,1.79-1.36.86-2.84-1.24-1.98-2.52-3.99-2.97-6.36,3.76-2.82,7.53-5.61,11.26-8.47.14-.11.27-.19.39-.25-.12.06-.25.14-.39.25-3.73,2.86-7.5,5.65-11.26,8.47-6.32,3.36-12.82,6.34-19.48,8.92-15.76,6.1-32.02,10.28-48.72,12.81-20.04,3.04-40.18,4.68-60.47,4.52-19.35-.15-38.71-.05-58.06-.06h-1.49c1.33-1.2,2.69-1.67,3.94-2.29,14.21-7.04,28.18-14.52,41.59-23.05,15.4-9.79,29.46-21.22,42.05-34.43,2.17-2.27,2.21-2.31-.7-3.82-13-6.74-24.04-15.79-32.68-27.66-9.2-12.65-14.48-26.77-15.45-42.46-.72-11.57.3-22.86,4.55-33.73.14-.34.3-.67.45-1.01,3.69-9.71,10.07-17.36,18.25-23.58,0,0,9.27-8.93,33.94-13.68,22.42-4.32,44.07-1,65.03,7.67,4.49,1.85,8.88,3.92,13.21,6.43-75.96-.31-89.64,57.23-89.64,57.23-6.58-14.66-5.11-28.83,1.99-42.96,0,0-8.74,5.54-16.25,17-.3,1.08-2.11,7.51-2.19,11.07-.3,12.95,5.25,23.21,14.49,31.8,9.3,8.64,20.43,13.58,32.71,16.26,10.91,2.38,21.91,3.23,33.01,1.89,8.65-1.06,16.96-3.15,24.39-7.99,3.17-2.07,5.88-4.61,8.55-7.89-.02,1.98-.43,3.42-.83,4.86-5.14,18.62-16.18,33.23-30.69,45.56-20.24,17.21-43.61,28.83-68.08,38.49-8.42,3.33-17.01,6.19-25.55,9.27.34.98,1.15.6,1.69.55,19.02-1.78,38.05-3.64,56.71-7.94,19.33-4.45,38.05-10.71,55.22-20.87,12.29-7.27,22.53-16.63,28.47-30.02,3.89-8.76,4.83-18.04,5.06-27.46.11-4.58.34-9.15,1.47-13.62,1.37-5.39,4.94-11.43,8.42-14.49,0,26.9,0,53.95-.03,81,0,1.43.47,1.82,1.77,1.68,1.02-.12,2.05-.12,3.08-.18.11.15.24.26.37.33-.13-.07-.26-.18-.37-.33-.04-18.52-.06-37.03-.13-55.55,0-1.27.4-1.61,1.63-1.61,10.84.04,21.69-.02,32.53.05,5.3.03,8.85,3.02,10.13,8.17.17.67-.16,1.53.63,2.01,2.21-.98,4.49-1.85,6.62-2.98,1.53-.81,1.93-.68,1.92,1.13-.06,7.36,0,14.73,0,22.1,0,.59.04,1.18.07,1.76-.05,4.9-.08,9.8-.16,14.71-.01.76.31,1.63-.45,2.26-2.91-1.25-5.78-2.57-8.47-4.24ZM304.21,253.8c-.03-1.69-.05-3.38-.08-5.07-.1-4.55.26-9.11-.17-13.66.04-7.23.08-14.46.12-21.69,0-1.48.05-2.95.07-4.43.04-3.74,3.34-6.53,5.35-7.46,1.06-.6,3.22-2.32,4.57-1.46.76.49.26,3.02.26,4.63,0,18.08-.05,36.16.01,54.24,0,2.06-.52,2.13-2.21,1.41-3.3-1.4-6.58-2.73-7.91-6.51ZM322.15,264.1c-2.52-1.36-3.31-3.65-3.31-6.31-.03-8.57-.03-17.14-.03-25.71,0-9.83.03-19.65-.02-29.48-.02-3.04,1.15-5.2,3.87-6.63,5.02-2.64,9.97-5.43,14.99-8.1,3.53-1.88,6.44-.05,6.46,4.14.05,10.12,0,20.24,0,30.36,0,2.51,0,5.02,0,7.54h0c0,12.48,0,24.97,0,37.45,0,5.03-2.94,6.92-7.35,4.61-4.9-2.57-9.74-5.25-14.61-7.88Z"/>
      <path class="cls-5" d="M180.08,161.77c.07,2.61,2.26,4.62,4.97,4.57,2.79-.05,4.93-2.24,4.84-4.95-.08-2.56-2.33-4.66-4.95-4.64-2.59.03-4.93,2.44-4.86,5.02Z"/>
      <path class="cls-4" d="M247.5,260.49c-.44,0-.93.09-1.34-.07-.03-.01-.06-.02-.09-.03,0,0-.02-.01-.03-.02-.13-.07-.26-.18-.37-.33-1.03.05-2.06.06-3.08.18-1.3.15-1.78-.25-1.77-1.68.04-27.05.03-54.11.03-81-3.48,3.06-7.04,9.1-8.42,14.49-1.13,4.47-1.36,9.04-1.47,13.62-.23,9.42-1.17,18.7-5.06,27.46-5.93,13.4-16.17,22.75-28.47,30.02-17.17,10.16-35.89,16.42-55.22,20.87-18.66,4.3-37.69,6.16-56.71,7.94-.54.05-1.35.43-1.69-.55,8.55-3.08,17.14-5.94,25.55-9.27,24.47-9.67,47.84-21.29,68.08-38.49,14.51-12.33,25.55-26.94,30.69-45.56.4-1.44.81-2.88.83-4.86-2.67,3.28-5.37,5.82-8.55,7.89-7.43,4.84-15.74,6.94-24.39,7.99-11.11,1.35-22.11.5-33.01-1.89-12.27-2.68-23.41-7.63-32.71-16.26-9.24-8.59-14.79-18.86-14.49-31.8.08-3.56,1.89-9.99,2.19-11.07-7.28,11.11-13.41,27.77-9.33,50.37-2.39-1.71-3.99-3.8-5.56-5.89-9.41-12.5-13.57-26.64-12.91-42.21.12-2.94.58-5.87,1.3-8.74.13-.54.58-1.1-.03-1.63-.15.34-.31.67-.45,1.01-4.25,10.87-5.27,22.16-4.55,33.73.97,15.7,6.25,29.81,15.45,42.46,8.63,11.87,19.68,20.92,32.68,27.66,2.91,1.51,2.87,1.56.7,3.82-12.59,13.21-26.65,24.64-42.05,34.43-13.41,8.52-27.38,16-41.59,23.05-1.25.62-2.61,1.09-3.94,2.29h1.49c19.35,0,38.71-.09,58.06.06,20.29.15,40.42-1.49,60.47-4.52,16.69-2.53,32.96-6.71,48.72-12.81,6.66-2.58,13.16-5.56,19.48-8.92,3.76-2.82,7.53-5.61,11.26-8.47.14-.11.27-.19.39-.25.25-.12.45-.13.61-.07.35.14.53.62.76,1.03,1.86,3.37,4.32,6.13,7.77,7.93,1.52.79,3.08,1.37,4.71,1.69,1.01.2,2.05.29,3.13.28,2.42-.04,4.85-.06,7.27-.07,2.37-.01,4.74-.03,7.11-.04.65,0,1.3,0,1.95,0l24.32-19.11c.16-2.18-1-3.72-3.55-4.67,0,0,0,0,0,0-11.39.01-22.79.02-34.18.02ZM263.21,269.82c-.45,2.53-2,4.28-4.45,4.48-5.07.4-10.18.39-15.25-.06-2.71-.24-4.49-2.23-6.29-4.42h25.99Z"/>
      <path class="cls-2" d="M251.85,284.3c-2.42.01-4.85.03-7.27.07-1.08.02-2.12-.08-3.13-.28-1.63-.32-3.19-.89-4.71-1.69-3.45-1.81-5.91-4.57-7.77-7.93-.23-.41-.41-.9-.76-1.03-.16-.06-.35-.06-.61.07-.12.06-.24.14-.39.25-3.73,2.86-7.5,5.65-11.26,8.47.45,2.37,1.73,4.38,2.97,6.36.94,1.49.52,2.09-.86,2.84-13.99,7.65-28.7,13.51-44.05,17.75-19.78,5.47-39.95,8.47-60.44,9.49-6.94.34-13.88.36-20.81.46-.73.01-1.59-.3-2.24.44.63,1.12,1.71,1.52,2.65,2.04,26.64,14.74,55.02,20.83,85.34,16.93,17.81-2.29,34.44-8.08,49.76-17.47,11.7-7.16,21.67-16.3,30.48-26.77,1.17-1.4,1.77-2.72,1.72-4.55-.06-1.83.28-3.66.44-5.5h0c-.65,0-1.3,0-1.95,0-2.37.01-4.74.02-7.11.04Z"/>
      <path class="cls-3" d="M242.88,155.63c-19.87-22.03-44.65-29.43-73.21-22.84-25.25,5.82-44.01,27.33-47.04,51.12-.32,2.49-.12,4.21,2.42,5.23,1.29.52,2.44,1.37,3.67,2.04,3.25,1.78,3.2,1.75,4.88-1.4,6.88-12.9,17.99-19.93,31.95-23.04,1.53-.34,1.46.6,1.65,1.53,1.04,5.24,3.93,8.99,9,10.9,6.62,2.5,13.88.04,17.39-5.83,3.66-6.13,2.51-13.18-2.94-18.03-4.99-4.44-12.58-4.5-18.14-.17-3.13,2.43-4.74,5.71-5.5,9.48-.08.39-.47.62-.85.49-3.2-1.09-6.35-1.65-9.62-1.72-5.05-.1-15.35,2.97-15.64,2.78.15-.2.29-.4.44-.6,12.56-15.47,28.57-23.29,48.67-21.33,10.94,1.07,20.37,5.74,28.06,13.72,6.49,6.73,6.16,12.07-1.09,17.83-.87.69-1.75,1.36-2.66,1.99-1.29.9-2.59,1.79-3.89,2.68.55,1.03.37.7.91,1.73,21.72-8.22,44.79-10.49,67.43-14.8.61-.12.73-.96.16-1.23-.18-.08-.35-.16-.53-.24-9.43-3.88-19.35-5.84-29.4-7.1-2.59-.33-4.37-1.23-6.13-3.19ZM189.89,161.39c.08,2.71-2.06,4.9-4.84,4.95-2.72.05-4.9-1.96-4.97-4.57-.07-2.58,2.27-4.99,4.86-5.02,2.63-.03,4.88,2.07,4.95,4.64Z"/>
      <path class="cls-6" d="M54,278.89c14.64-7.9,27.96-17.61,40.31-28.72,1.43-1.29,1.22-1.83-.24-2.87-16.79-12.02-29.04-27.56-36.11-47.05-4.89-13.47-7.01-27.24-4.8-41.55.72-4.68,2.04-9.18,3.73-14.11-32.43,74.24-6.22,133.26-6.22,133.26.86,1.48,1.42,2.06,3.33,1.04Z"/>
      <path class="cls-2" d="M71.52,141.59c-.71,2.87-1.17,5.79-1.3,8.74-.67,15.58,3.5,29.71,12.91,42.21,1.57,2.09,3.17,4.19,5.56,5.89-4.09-22.6,2.05-39.26,9.33-50.37,7.51-11.46,16.25-17,16.25-17-7.1,14.13-8.57,28.31-1.99,42.96,0,0,13.68-57.53,89.64-57.23-4.33-2.51-8.72-4.58-13.21-6.43-20.96-8.67-42.61-11.99-65.03-7.67-24.67,4.75-33.94,13.68-33.94,13.68-8.18,6.22-14.56,13.87-18.25,23.58.61.53.16,1.1.03,1.63Z"/>
    </g>
    <path class="cls-6" d="M289.84,211.1c-1.28-5.15-4.83-8.13-10.13-8.17-10.84-.07-21.69,0-32.53-.05-1.23,0-1.64.34-1.63,1.61.07,18.52.1,37.03.13,55.55.11.15.24.26.37.33,0,0,.02.01.03.02.03.01.06.02.09.03.42.17.9.07,1.34.07,11.39,0,22.79-.01,34.18-.02,0,0,0,0,0,0,.24-.57.82-.57,1.28-.73,4.21-1.46,6.44-4.4,6.76-8.83.07-1.02.19-2.05.28-3.07.16-11.58.31-23.16.47-34.73-.79-.48-.46-1.34-.63-2.01ZM256.06,248.75c1.61.1,2.46,1.18,2.48,2.95-.15,1.56-1.05,2.52-2.72,2.43-1.69-.09-2.49-1.31-2.49-2.85,0-1.66,1.11-2.63,2.73-2.53ZM270.06,251.44c-.16,1.54-.91,2.7-2.58,2.71-1.66.01-2.57-1.13-2.6-2.71-.03-1.61.92-2.73,2.55-2.74,1.63-.01,2.49,1.07,2.63,2.74ZM280.64,226.88c.02,6.72-5.16,12.09-11.74,12.17-6.43.08-12.02-5.35-12.04-11.68-.03-6.39,5.39-11.79,11.89-11.86,6.12-.06,11.88,5.44,11.9,11.37ZM278.9,254.07c-1.66-.07-2.58-1.2-2.52-2.8.07-1.6,1.05-2.65,2.73-2.55,1.63.1,2.5,1.12,2.53,2.9-.18,1.54-1.11,2.51-2.75,2.45Z"/>
    <path class="cls-3" d="M344.11,267.37c0-12.48,0-24.97,0-37.45h0c0-2.51,0-5.02,0-7.54,0-10.12.05-20.24,0-30.36-.02-4.19-2.93-6.03-6.46-4.14-5.01,2.67-9.96,5.45-14.99,8.1-2.73,1.43-3.89,3.59-3.87,6.63.05,9.83.01,19.65.02,29.48,0,8.57,0,17.14.03,25.71,0,2.66.8,4.95,3.31,6.31,4.87,2.63,9.71,5.32,14.61,7.88,4.41,2.31,7.35.42,7.35-4.61Z"/>
    <path class="cls-4" d="M257.28,146.2c1.48.21,1.29-.69,1.29-1.58,0-4.51,0-9.01.01-13.52,0-1.05-.06-2.51,1.13-2.55,1.49-.04,1.17,1.54,1.28,2.59.04.37.02.74.02,1.11.02,4.21.12,8.42.03,12.63-.03,1.51.38,2.15,1.9,2.56,7.19,1.94,14.36,4,21.26,6.84,1.31.54,1.6.3,1.59-1.08-.06-5.17-.02-10.34-.02-15.52h.03c0-5.02-.06-10.05.04-15.07.03-1.43-.38-1.79-1.79-1.94-9-.95-17.99-.7-26.99.01-1.19.09-1.63.39-1.62,1.67.06,7.39.07,14.78-.03,22.16-.02,1.57.78,1.52,1.87,1.67Z"/>
    <path class="cls-3" d="M235.78,103.56c3.4-.66,6.81-1.33,10.25-1.73,19.92-2.35,39.78-2.34,59.51,1.76,1.32.27,1.47-.14,1.44-1.26-.06-2.44-.02-4.87-.01-7.31q0-3.42-3.31-3.92c-11.12-1.67-22.32-2.27-33.55-2.22-11.46-.02-22.87.47-34.17,2.62-1.36.26-1.87.7-1.82,2.12.11,2.88.1,5.76,0,8.64-.05,1.4.44,1.53,1.66,1.29Z"/>
    <path class="cls-3" d="M248.13,77.25c14.43-1.73,28.86-1.85,43.31-.23,1.55.17,3.6,1.42,4.5.32.8-.98.23-3.1.19-4.72-.07-3.12-.47-3.62-3.58-4.28-5.43-1.16-10.96-1.67-16.49-1.86-2.1-.07-2.37-.85-2.36-2.59.07-6.42.03-12.85.03-19.28h-.04c0-6.35,0-12.7,0-19.06,0-2.52-1.03-3.71-3.04-3.67-1.88.04-2.9,1.26-2.91,3.63-.07,12.85-.15,25.7-.12,38.55,0,1.84-.31,2.57-2.36,2.57-4.8,0-9.57.57-14.31,1.35-5.83.96-5.83.91-5.82,6.72,0,2.94,0,2.89,3,2.53Z"/>
    <path class="cls-3" d="M247.76,118.18c15.13-2.52,30.26-2.48,45.39-.03,1.08.17,1.55,0,1.9-1.11.82-2.55,2.16-4.85,3.91-6.88,2.95-3.41,2.7-3.51-1.85-4.33-8.6-1.55-17.3-1.8-23.38-1.85-12.39-.03-22.1.49-31.7,2.38-2.3.45-2.46.81-1.03,2.61,2.03,2.56,3.86,5.24,4.91,8.34.38,1.13,1,1,1.84.86Z"/>
    <path class="cls-3" d="M314.32,258.89c-.06-18.08-.01-36.16-.01-54.24,0-1.61.51-4.14-.26-4.63-1.35-.87-3.5.86-4.57,1.46-2,.93-5.31,3.72-5.35,7.46-.02,1.48-.06,2.95-.07,4.43-.04,7.23-.08,14.46-.12,21.69.43,4.55.07,9.11.17,13.66.04,1.69.06,3.38.08,5.07,1.32,3.77,4.6,5.1,7.91,6.51,1.69.72,2.22.65,2.21-1.41Z"/>
    <path class="cls-3" d="M284.07,198.31c1.48.04,1.86-.42,1.84-1.88-.09-6.64-.12-13.29-.01-19.93.03-1.57-.58-1.32-1.51-1.04-7.15,2.17-14.51,3.34-21.89,4.35-1.15.16-1.44.58-1.42,1.68.05,5.09.06,10.19,0,15.28-.01,1.18.37,1.5,1.51,1.48,3.62-.07,7.24-.02,10.85-.02v.06c3.54,0,7.09-.07,10.63.03Z"/>
    <path class="cls-3" d="M228.85,89.08c9.29-2.2,18.75-3.3,28.28-3.63,18.47-.63,36.91-.71,55.03,3.82.59.15,1.02.18,1.01-.62-.01-4.18.6-5.62-4.27-6.38-12.72-2-25.53-2.65-38.39-2.65-12.79,0-25.51.95-38.18,2.63-4.48.6-5.06,1.3-4.88,5.81.05,1.16.31,1.28,1.4,1.02Z"/>
    <path class="cls-3" d="M298.93,249.82c.08-4.9.11-9.8.16-14.71-.02-.59-.06-1.18-.07-1.76-.02-7.37-.07-14.73,0-22.1.02-1.82-.39-1.94-1.92-1.13-2.14,1.13-4.41,2-6.62,2.98-.16,11.58-.31,23.16-.47,34.73,2.7,1.67,5.57,2.99,8.47,4.24.76-.63.44-1.5.45-2.26Z"/>
    <path class="cls-2" d="M255.52,180.86c-2.85.31-5.7.61-8.55.92-.94.1-1.41.51-1.4,1.56.05,4.57.04,9.14.05,13.72,0,.62.06,1.3.87,1.24,2.98-.18,6,.5,8.95-.39.02-5.69.05-11.37.08-17.05Z"/>
    <path class="cls-4" d="M258.48,197.55c.02-2.22.02-4.44.04-6.66.1-3.4.25-6.79-.02-10.18-1.03-.6-1.99,0-2.98.15-.02,5.69-.05,11.37-.08,17.05.89,0,1.77,0,2.66.02.05,0,.09,0,.14,0,0,0-.01.01-.02.02.3.05.44-.05.38-.38-.04.04-.07.08-.11.11,0-.04,0-.08,0-.13Z"/>
  </g>
  <g>
    <path class="cls-1" d="M386.36,120.98h11.62l21.04,31.9v-31.9h13.2v54.31h-11.54l-21.19-31.23v31.23h-13.12v-54.31Z"/>
    <path class="cls-1" d="M440.67,120.98h13.35v54.31h-13.35v-54.31Z"/>
    <path class="cls-1" d="M487.88,145.34h20.67v22.48c-6.33,6.71-14.71,8.45-22.1,8.45-19.31,0-25.49-13.12-25.49-27.91,0-16.44,7.92-28.28,25.42-28.28,15.39,0,21.27,8.15,22.17,18.93h-13.8c-.45-3.85-2.49-6.94-8.15-6.94-7.54,0-11.62,5.96-11.62,16.07s3.77,16.37,12.67,16.37c3.17,0,5.81-.6,8-2.19v-6.94h-7.77v-10.03Z"/>
    <path class="cls-1" d="M516.08,120.98h13.35v21.35h18.63v-21.35h13.35v54.31h-13.35v-20.89h-18.63v20.89h-13.35v-54.31Z"/>
    <path class="cls-1" d="M582.45,132.74h-15.69v-11.77h44.73v11.77h-15.69v42.54h-13.35v-42.54Z"/>
    <path class="cls-2" d="M389.83,230.61c4.98,3.92,10.79,6.64,15.54,6.64,4.15,0,6.56-1.96,6.56-5.2s-1.89-4.6-10.56-7.09c-11.01-3.17-15.76-7.54-15.76-16.22,0-11.46,8.82-16.67,19.91-16.67,7.17,0,14.1,2.64,19.53,7.54l-6.11,8.15c-4-3.02-8.67-4.98-13.12-4.98-3.92,0-6.49,1.51-6.49,4.53,0,3.54,3.09,4.53,12.07,7.47,10.03,3.24,14.41,7.17,14.41,15.84,0,11.09-7.84,17.65-20.29,17.65-8.9,0-16.37-3.32-22.17-9.5l6.49-8.15Z"/>
    <path class="cls-2" d="M432.67,192.98h21.34c12.52,0,19.84,6.79,19.84,18.25s-6.71,18.86-20.52,18.86h-7.32v17.2h-13.35v-54.31ZM446.02,204.44v14.78h6.56c5.43,0,8.07-2.79,8.07-7.39s-2.41-7.39-7.77-7.39h-6.86Z"/>
    <path class="cls-2" d="M503.12,192.98l19.38,54.31h-14.33l-3.02-9.96h-17.35l-3.02,9.96h-14.33l19.31-54.31h13.35ZM501.61,226.09l-5.2-17.88-5.13,17.88h10.33Z"/>
    <path class="cls-2" d="M548.29,192.98c13.65,0,20.74,7.01,20.74,17.65,0,7.01-2.79,11.84-8.3,15.01l11.24,21.65h-14.48l-9.13-18.55c-1.43.23-2.71.3-4.22.3h-3.7v18.25h-13.35v-54.31h21.19ZM540.45,204.44v14.03h6.79c5.43,0,8.22-2.56,8.22-7.24s-2.56-6.79-7.84-6.79h-7.17Z"/>
    <path class="cls-2" d="M598.52,192.98c13.65,0,20.74,7.01,20.74,17.65,0,7.01-2.79,11.84-8.3,15.01l11.24,21.65h-14.48l-9.13-18.55c-1.43.23-2.71.3-4.22.3h-3.7v18.25h-13.35v-54.31h21.19ZM590.67,204.44v14.03h6.79c5.43,0,8.22-2.56,8.22-7.24s-2.56-6.79-7.84-6.79h-7.17Z"/>
    <path class="cls-2" d="M651.54,192.07c16.52,0,26.85,10.86,26.85,27.98s-10.33,28.21-26.85,28.21-26.78-10.56-26.78-28.21,10.33-27.98,26.78-27.98ZM651.54,236.2c8.45,0,12.82-6.34,12.82-16.14,0-9.2-4.37-15.84-12.82-15.84s-12.75,6.71-12.75,15.84c0,9.73,4.38,16.14,12.75,16.14Z"/>
    <path class="cls-2" d="M680.19,192.98h13.65l7.92,36.88,7.32-36.88h11.92l7.54,36.96,7.62-36.96h13.73l-13.42,54.31h-13.8l-7.62-33.49-7.24,33.49h-14.25l-13.35-54.31Z"/>
    <path class="cls-1" d="M386.36,264.98h21.34c12.52,0,19.84,6.79,19.84,18.25s-6.71,18.86-20.52,18.86h-7.32v17.2h-13.35v-54.31ZM399.71,276.44v14.78h6.56c5.43,0,8.07-2.79,8.07-7.39s-2.41-7.39-7.77-7.39h-6.86Z"/>
    <path class="cls-1" d="M455.22,264.98c13.65,0,20.74,7.01,20.74,17.65,0,7.01-2.79,11.84-8.3,15.01l11.24,21.65h-14.48l-9.13-18.55c-1.43.23-2.71.3-4.22.3h-3.7v18.25h-13.35v-54.31h21.19ZM447.38,276.44v14.03h6.79c5.43,0,8.22-2.56,8.22-7.24s-2.56-6.79-7.84-6.79h-7.17Z"/>
    <path class="cls-1" d="M508.24,264.07c16.52,0,26.85,10.86,26.85,27.98s-10.33,28.21-26.85,28.21-26.78-10.56-26.78-28.21,10.33-27.98,26.78-27.98ZM508.24,308.2c8.45,0,12.82-6.34,12.82-16.14,0-9.2-4.37-15.84-12.82-15.84s-12.75,6.71-12.75,15.84c0,9.73,4.38,16.14,12.75,16.14Z"/>
    <path class="cls-1" d="M561.71,264.98c18.1,0,27.15,10.71,27.15,26.25,0,19.54-9.43,28.06-29.19,28.06h-17.65v-54.31h19.69ZM555.38,276.74v30.85h6.33c9.05,0,13.2-5.13,13.2-15.46s-4.15-15.39-13.2-15.39h-6.33Z"/>
    <path class="cls-1" d="M608.77,264.98v33.19c0,7.01,3.62,10.26,9.05,10.26,6.18,0,9.2-3.24,9.2-10.26v-33.19h13.35v33.49c0,14.56-8.3,21.72-22.55,21.72s-22.4-6.64-22.4-21.72v-33.49h13.35Z"/>
    <path class="cls-1" d="M693.85,311.44c-6.49,5.73-13.8,8.82-22.25,8.82-16.44,0-24.66-11.46-24.66-27.98s8.75-28.21,25.12-28.21c11.92,0,21.12,6.49,21.87,20.52h-13.42c-.53-4.3-2.11-8.45-8.22-8.45-6.79,0-11.09,5.36-11.09,16.07s4.53,15.99,11.84,15.99c6.11,0,10.63-2.49,14.86-5.81l5.96,9.05Z"/>
    <path class="cls-1" d="M711.19,276.74h-15.69v-11.77h44.73v11.77h-15.69v42.54h-13.35v-42.54Z"/>
    <path class="cls-1" d="M745.58,264.98h13.35v54.31h-13.35v-54.31Z"/>
    <path class="cls-1" d="M792.64,264.07c16.52,0,26.85,10.86,26.85,27.98s-10.33,28.21-26.85,28.21-26.78-10.56-26.78-28.21,10.33-27.98,26.78-27.98ZM792.64,308.2c8.45,0,12.82-6.34,12.82-16.14,0-9.2-4.37-15.84-12.82-15.84s-12.75,6.71-12.75,15.84c0,9.73,4.38,16.14,12.75,16.14Z"/>
    <path class="cls-1" d="M826.43,264.98h11.62l21.04,31.9v-31.9h13.2v54.31h-11.54l-21.19-31.23v31.23h-13.12v-54.31Z"/>
    <path class="cls-1" d="M884.2,302.61c4.98,3.92,10.79,6.64,15.54,6.64,4.15,0,6.56-1.96,6.56-5.2s-1.89-4.6-10.56-7.09c-11.01-3.17-15.76-7.54-15.76-16.22,0-11.46,8.82-16.67,19.91-16.67,7.17,0,14.1,2.64,19.53,7.54l-6.11,8.15c-4-3.02-8.67-4.98-13.12-4.98-3.92,0-6.49,1.51-6.49,4.53,0,3.54,3.09,4.53,12.07,7.47,10.03,3.24,14.41,7.17,14.41,15.84,0,11.09-7.84,17.65-20.29,17.65-8.9,0-16.37-3.32-22.17-9.5l6.49-8.15Z"/>
  </g>
</svg>